<svg xmlns="http://www.w3.org/2000/svg" viewBox="0 0 230.81 230.81"><defs><style>.cls-1{fill:#951a11;}.cls-2,.cls-4{fill:#fff;}.cls-3{fill:#f1b417;}.cls-3,.cls-4{fill-rule:evenodd;}.cls-5{font-size:40.32px;fill:#231f20;font-family:Impact, Impact;}</style></defs><title>Recurso 1</title><g id="Capa_2" data-name="Capa 2"><g id="Capa_1-2" data-name="Capa 1"><circle class="cls-1" cx="115.41" cy="115.41" r="115.41"/><circle class="cls-2" cx="115.41" cy="115.41" r="103.38"/><path class="cls-3" d="M32.33,160.46H198.48a94.52,94.52,0,0,1-166.15,0Z"/><path class="cls-3" d="M209.73,109.6l-188.64.34a94.49,94.49,0,0,1,188.64-.34Z"/><path class="cls-4" d="M163.49,99.06v3.53a1.36,1.36,0,0,1-1.39,1.33H144a1.36,1.36,0,0,1-1.39-1.33V99.09H87.17v3.05a1.36,1.36,0,0,1-1.39,1.33H67.65a1.36,1.36,0,0,1-1.39-1.33V99.07C59.4,99,60.45,97.91,60,88.79c0-6.4-.75-15.57,4.29-20.38l1.43-2c-.64-.38-1.23-.75-1.7-1.09-2.89-2.07-4.52-4.62-.16-6.35,3.44-1.37,5.55-1.36,7.09.16,18.91-26.37,67-26.86,89.4-.09,1.52-1.31,3.59-1.26,6.87,0,4.36,1.73,2.73,4.28-.16,6.35-.35.25-.76.52-1.21.79l1.58,2.18c4.17,4.07,3.28,16.2,3.28,21.61,0,7.27-1.11,8.84-7.25,9.08ZM97.2,90.86c-3.54,0-8,5.09-3.71,5.09h42.4c4.37,0,0-5.09-3.72-5.09Zm63.54-5.44a3.82,3.82,0,1,0,4,3.82,3.91,3.91,0,0,0-4-3.82Zm-90.68,0a3.82,3.82,0,1,0,4,3.82,3.91,3.91,0,0,0-4-3.82Zm77.58-12.93c-3.21,3-7.7,9.55-7.11,10.43,1.39,1.47,11.13.88,15.62-.31s7.54-3.64,2.63-8.1-7.93-5-11.14-2Zm-65.37-.83c-3.21-3-6.23-2.43-11.14,2s-1.86,6.91,2.63,8.1S88,83.58,89.38,82.1c.59-.88-3.9-7.48-7.11-10.43ZM77,61.21h77.23C136.27,36.46,89.43,38.78,77,61.21Z"/><text class="cls-5" transform="translate(25.46 152.21)">GRUPO CAR</text></g></g></svg>